<?xml version="1.0" encoding="utf-8" standalone="no"?>
<!DOCTYPE svg PUBLIC "-//W3C//DTD SVG 1.1//EN"
  "http://www.w3.org/Graphics/SVG/1.1/DTD/svg11.dtd">
<svg xmlns:xlink="http://www.w3.org/1999/xlink" width="576pt" height="432pt" viewBox="0 0 576 432" xmlns="http://www.w3.org/2000/svg" version="1.1">
 <metadata>
  <rdf:RDF xmlns:dc="http://purl.org/dc/elements/1.1/" xmlns:cc="http://creativecommons.org/ns#" xmlns:rdf="http://www.w3.org/1999/02/22-rdf-syntax-ns#">
   <cc:Work>
    <dc:type rdf:resource="http://purl.org/dc/dcmitype/StillImage"/>
    <dc:date>2025-01-06T21:21:12.619305</dc:date>
    <dc:format>image/svg+xml</dc:format>
    <dc:creator>
     <cc:Agent>
      <dc:title>Matplotlib v3.5.3, https://matplotlib.org/</dc:title>
     </cc:Agent>
    </dc:creator>
   </cc:Work>
  </rdf:RDF>
 </metadata>
 <defs>
  <style type="text/css">*{stroke-linejoin: round; stroke-linecap: butt}</style>
 </defs>
 <g id="figure_1">
  <g id="patch_1">
   <path d="M 0 432 
L 576 432 
L 576 0 
L 0 0 
L 0 432 
z
" style="fill: none"/>
  </g>
  <g id="axes_1">
   <g id="patch_2">
    <path d="M 72 378 
L 518.4 378 
L 518.4 51.84 
L 72 51.84 
z
" style="fill: #ffffff"/>
   </g>
   <g id="PolyCollection_1">
    <defs>
     <path id="m245dd2c4a1" d="M 92.808326 -169.934899 
L 92.808326 -70.816225 
L 93.761462 -74.635684 
L 94.605669 -78.337384 
L 96.239616 -80.102519 
L 99.099025 -87.853946 
L 101.223157 -96.091941 
L 102.285223 -99.201959 
L 103.946404 -97.889361 
L 105.770979 -97.256509 
L 108.058506 -95.223617 
L 109.311199 -91.982776 
L 110.97238 -104.637669 
L 112.225073 -105.99251 
L 114.158578 -112.096801 
L 115.002784 -109.017491 
L 116.228245 -109.00306 
L 117.154149 -109.080321 
L 118.897027 -109.263927 
L 121.239019 -114.599092 
L 123.662708 -116.279107 
L 125.269423 -117.167081 
L 126.876139 -120.225022 
L 128.891341 -121.981929 
L 129.98064 -121.598906 
L 131.369495 -123.693103 
L 132.295399 -126.363378 
L 133.847649 -129.778339 
L 135.944549 -134.691461 
L 137.796357 -135.598677 
L 140.437906 -135.449112 
L 142.507573 -135.328219 
L 143.950894 -137.248081 
L 146.919232 -140.320715 
L 150.296058 -144.413033 
L 152.556352 -145.257942 
L 154.62602 -146.989829 
L 156.368897 -148.773791 
L 159.064911 -152.410817 
L 160.835022 -153.865897 
L 163.149781 -159.054883 
L 166.063655 -164.382691 
L 169.848967 -170.780726 
L 173.770442 -177.622689 
L 176.684316 -179.412319 
L 180.387931 -185.672642 
L 184.717893 -194.153898 
L 188.612135 -202.935033 
L 191.090289 -207.30923 
L 195.066229 -216.360974 
L 198.633682 -223.864259 
L 202.473459 -233.384259 
L 206.313237 -240.911158 
L 209.88069 -244.813449 
L 213.802164 -251.225296 
L 218.159359 -257.268513 
L 222.516553 -263.154662 
L 226.873747 -272.398587 
L 230.087178 -274.157763 
L 234.117583 -276.908641 
L 237.984593 -282.573216 
L 242.205625 -288.019011 
L 246.562819 -294.838828 
L 250.375364 -298.24796 
L 254.133444 -303.690783 
L 258.490638 -307.084372 
L 261.458977 -307.590541 
L 265.816171 -308.97713 
L 270.173365 -308.894588 
L 272.161335 -309.969788 
L 276.436832 -308.769589 
L 280.794026 -310.723601 
L 285.151221 -309.400945 
L 289.508415 -310.1527 
L 293.865609 -307.03643 
L 297.950479 -305.587199 
L 301.354537 -304.359996 
L 305.139849 -300.650783 
L 309.497044 -305.650547 
L 313.609146 -306.418983 
L 317.96634 -305.158291 
L 321.669955 -306.698322 
L 325.727592 -306.677552 
L 330.084787 -306.263877 
L 333.162055 -305.909837 
L 337.519249 -304.439156 
L 340.95054 -307.840431 
L 344.463528 -307.915207 
L 346.996147 -310.327944 
L 350.67253 -308.527379 
L 353.831495 -307.458753 
L 358.18869 -308.371955 
L 361.374888 -310.174968 
L 363.93474 -305.327617 
L 367.58389 -308.836306 
L 371.941084 -308.737993 
L 376.298278 -307.305765 
L 380.246986 -307.280292 
L 382.72514 -303.704466 
L 386.101966 -302.338865 
L 390.45916 -303.472295 
L 394.298937 -304.659104 
L 398.165947 -305.682194 
L 401.869562 -303.719254 
L 405.38255 -301.350093 
L 409.46742 -299.66069 
L 413.824614 -301.516764 
L 416.738488 -297.716806 
L 420.115313 -295.501823 
L 423.682766 -297.602403 
L 427.440846 -296.313027 
L 431.798041 -298.151707 
L 435.283796 -297.876837 
L 439.64099 -302.694862 
L 443.453535 -302.824032 
L 445.931689 -300.380963 
L 449.771467 -297.948185 
L 454.128661 -299.343761 
L 457.287627 -300.058226 
L 460.501058 -302.372049 
L 464.3953 -301.133891 
L 466.573897 -295.195725 
L 469.678398 -292.310692 
L 473.300316 -293.848593 
L 473.300316 -315.406831 
L 473.300316 -315.406831 
L 469.678398 -316.621354 
L 466.573897 -317.27401 
L 464.3953 -314.635229 
L 460.501058 -314.168209 
L 457.287627 -314.359758 
L 454.128661 -311.721908 
L 449.771467 -312.905416 
L 445.931689 -313.203543 
L 443.453535 -312.254945 
L 439.64099 -312.12007 
L 435.283796 -312.856956 
L 431.798041 -314.456658 
L 427.440846 -319.196331 
L 423.682766 -318.273467 
L 420.115313 -316.996398 
L 416.738488 -315.0506 
L 413.824614 -316.473426 
L 409.46742 -317.033819 
L 405.38255 -320.190145 
L 401.869562 -322.336619 
L 398.165947 -322.987375 
L 394.298937 -318.617557 
L 390.45916 -317.705162 
L 386.101966 -314.909059 
L 382.72514 -312.831279 
L 380.246986 -310.497963 
L 376.298278 -311.225659 
L 371.941084 -311.47182 
L 367.58389 -310.886984 
L 363.93474 -312.545304 
L 361.374888 -313.764756 
L 358.18869 -313.81605 
L 353.831495 -310.659933 
L 350.67253 -313.521226 
L 346.996147 -314.060924 
L 344.463528 -317.434722 
L 340.95054 -319.462898 
L 337.519249 -321.456051 
L 333.162055 -320.596636 
L 330.084787 -325.049872 
L 325.727592 -322.092617 
L 321.669955 -322.734069 
L 317.96634 -324.913262 
L 313.609146 -325.428251 
L 309.497044 -325.062684 
L 305.139849 -324.541283 
L 301.354537 -328.171255 
L 297.950479 -328.100571 
L 293.865609 -328.319742 
L 289.508415 -323.642915 
L 285.151221 -320.954054 
L 280.794026 -319.071329 
L 276.436832 -320.92562 
L 272.161335 -318.59527 
L 270.173365 -321.010823 
L 265.816171 -321.125244 
L 261.458977 -322.499029 
L 258.490638 -324.307232 
L 254.133444 -321.588778 
L 250.375364 -319.941215 
L 246.562819 -318.044222 
L 242.205625 -311.755615 
L 237.984593 -310.135142 
L 234.117583 -304.818994 
L 230.087178 -297.906793 
L 226.873747 -292.863627 
L 222.516553 -285.504644 
L 218.159359 -284.954589 
L 213.802164 -277.9342 
L 209.88069 -272.53873 
L 206.313237 -271.010901 
L 202.473459 -265.306511 
L 198.633682 -259.710181 
L 195.066229 -253.513032 
L 191.090289 -249.338998 
L 188.612135 -242.245203 
L 184.717893 -236.77556 
L 180.387931 -228.048586 
L 176.684316 -221.55826 
L 173.770442 -216.805971 
L 169.848967 -207.366671 
L 166.063655 -201.013467 
L 163.149781 -192.715824 
L 160.835022 -184.885041 
L 159.064911 -179.578307 
L 156.368897 -173.709773 
L 154.62602 -177.199444 
L 152.556352 -172.884439 
L 150.296058 -165.888945 
L 146.919232 -162.689221 
L 143.950894 -161.645737 
L 142.507573 -159.003365 
L 140.437906 -153.454638 
L 137.796357 -148.917586 
L 135.944549 -146.551948 
L 133.847649 -142.019107 
L 132.295399 -140.78136 
L 131.369495 -141.885267 
L 129.98064 -143.586078 
L 128.891341 -143.255214 
L 126.876139 -144.963705 
L 125.269423 -146.473672 
L 123.662708 -148.923936 
L 121.239019 -149.593054 
L 118.897027 -147.977473 
L 117.154149 -146.945029 
L 116.228245 -145.461969 
L 115.002784 -143.087699 
L 114.158578 -143.581449 
L 112.225073 -143.940607 
L 110.97238 -144.359293 
L 109.311199 -143.979204 
L 108.058506 -141.105272 
L 105.770979 -141.759074 
L 103.946404 -140.803223 
L 102.285223 -139.971776 
L 101.223157 -152.70139 
L 99.099025 -142.05972 
L 96.239616 -139.117845 
L 94.605669 -127.078763 
L 93.761462 -145.534334 
L 92.808326 -169.934899 
z
" style="stroke: #4169e1; stroke-opacity: 0.4"/>
    </defs>
    <g clip-path="url(#p7cfeb481b8)">
     <use xlink:href="#m245dd2c4a1" x="0" y="432" style="fill: #4169e1; fill-opacity: 0.4; stroke: #4169e1; stroke-opacity: 0.4"/>
    </g>
   </g>
   <g id="PolyCollection_2">
    <defs>
     <path id="mbf3374c97e" d="M 93.870392 -224.652721 
L 93.870392 -87.458978 
L 95.368178 -78.901172 
L 97.328915 -88.763773 
L 98.93563 -87.594053 
L 100.215556 -93.088344 
L 101.413785 -92.339679 
L 102.748175 -90.901459 
L 103.864706 -100.952202 
L 104.491053 -98.846865 
L 106.342861 -98.361519 
L 108.65762 -102.024342 
L 111.081309 -101.010311 
L 114.29474 -98.438542 
L 117.263079 -101.707255 
L 119.768465 -101.791627 
L 122.518944 -101.298977 
L 124.779239 -103.175791 
L 126.603814 -101.969768 
L 128.727946 -104.580596 
L 130.852078 -105.644201 
L 134.038277 -102.112257 
L 135.590527 -104.231957 
L 138.232076 -110.425069 
L 139.294142 -113.314606 
L 140.682998 -114.512682 
L 142.480341 -117.477796 
L 144.059824 -122.002455 
L 146.320118 -125.307761 
L 148.199158 -130.268972 
L 151.085799 -133.757824 
L 154.244765 -136.648756 
L 157.322034 -140.637353 
L 159.119376 -141.353031 
L 162.577899 -144.987847 
L 166.526607 -147.028193 
L 170.720406 -149.451099 
L 174.832508 -154.829494 
L 179.189702 -163.953868 
L 183.546897 -167.908289 
L 187.904091 -174.718632 
L 192.261285 -182.942542 
L 194.930067 -192.686161 
L 198.334125 -202.007326 
L 202.527924 -210.025059 
L 206.885119 -217.031488 
L 211.242313 -228.290038 
L 215.599507 -231.812948 
L 219.956701 -232.018587 
L 224.313896 -238.725211 
L 228.67109 -246.428917 
L 233.028284 -251.362116 
L 236.350645 -258.296975 
L 240.707839 -264.204964 
L 244.13913 -270.662736 
L 248.251232 -277.29052 
L 251.818684 -284.361709 
L 256.175879 -285.689601 
L 260.533073 -292.623234 
L 264.182223 -294.721753 
L 268.23986 -300.691504 
L 272.10687 -304.372762 
L 276.4096 -310.13557 
L 280.548934 -308.202045 
L 284.906129 -307.455941 
L 288.364651 -310.732366 
L 292.095499 -310.654004 
L 296.180369 -311.672191 
L 299.28487 -312.488924 
L 303.642064 -309.918115 
L 307.999258 -307.926805 
L 311.893501 -309.566367 
L 316.250695 -310.87879 
L 320.607889 -314.723499 
L 324.965083 -314.936529 
L 328.369141 -315.290628 
L 332.018292 -316.405658 
L 335.42235 -314.765406 
L 338.908105 -310.328934 
L 343.265299 -310.890429 
L 347.486331 -308.193056 
L 351.761828 -305.550461 
L 355.628838 -311.044613 
L 359.768173 -309.146302 
L 364.125367 -310.410796 
L 367.529425 -313.259801 
L 371.886619 -313.215862 
L 375.726397 -310.877324 
L 379.729569 -310.176933 
L 383.542114 -313.151222 
L 387.899308 -311.06232 
L 391.085507 -312.702597 
L 395.442701 -309.882612 
L 399.228013 -309.04514 
L 403.585208 -305.892758 
L 407.288823 -305.276738 
L 411.646017 -304.846347 
L 415.921514 -307.471518 
L 420.278708 -307.908124 
L 424.635902 -304.935437 
L 427.386381 -304.504088 
L 431.743576 -302.617163 
L 436.10077 -301.676421 
L 439.695455 -304.296791 
L 443.72586 -302.501169 
L 447.347778 -301.695437 
L 451.704972 -305.323555 
L 456.062166 -305.644855 
L 459.711316 -303.652181 
L 464.068511 -304.067052 
L 468.425705 -301.090883 
L 472.374412 -300.49059 
L 476.159725 -300.022591 
L 479.75441 -303.574733 
L 483.866512 -299.913682 
L 488.223706 -299.706344 
L 492.580901 -298.210285 
L 494.296546 -301.256551 
L 498.109091 -301.697726 
L 498.109091 -319.8535 
L 498.109091 -319.8535 
L 494.296546 -319.796923 
L 492.580901 -325.547147 
L 488.223706 -322.442055 
L 483.866512 -322.197144 
L 479.75441 -322.138482 
L 476.159725 -321.855118 
L 472.374412 -322.174276 
L 468.425705 -323.793343 
L 464.068511 -321.619301 
L 459.711316 -322.263738 
L 456.062166 -324.272242 
L 451.704972 -322.497985 
L 447.347778 -321.633359 
L 443.72586 -323.562238 
L 439.695455 -325.183258 
L 436.10077 -324.717502 
L 431.743576 -321.999538 
L 427.386381 -320.959812 
L 424.635902 -323.284736 
L 420.278708 -324.462064 
L 415.921514 -322.218889 
L 411.646017 -321.307454 
L 407.288823 -319.83023 
L 403.585208 -321.825559 
L 399.228013 -322.666268 
L 395.442701 -320.498612 
L 391.085507 -320.111005 
L 387.899308 -321.789818 
L 383.542114 -321.776819 
L 379.729569 -323.095392 
L 375.726397 -325.580934 
L 371.886619 -325.376019 
L 367.529425 -324.410662 
L 364.125367 -326.260708 
L 359.768173 -322.848468 
L 355.628838 -322.961722 
L 351.761828 -326.592399 
L 347.486331 -325.101678 
L 343.265299 -325.299811 
L 338.908105 -323.28996 
L 335.42235 -324.048037 
L 332.018292 -323.936004 
L 328.369141 -325.49416 
L 324.965083 -327.763063 
L 320.607889 -327.438998 
L 316.250695 -329.060219 
L 311.893501 -332.819702 
L 307.999258 -335.309399 
L 303.642064 -332.742218 
L 299.28487 -332.002728 
L 296.180369 -332.817896 
L 292.095499 -330.560924 
L 288.364651 -331.040537 
L 284.906129 -331.92277 
L 280.548934 -329.157147 
L 276.4096 -328.913265 
L 272.10687 -329.312144 
L 268.23986 -327.894434 
L 264.182223 -325.547802 
L 260.533073 -324.314201 
L 256.175879 -316.543759 
L 251.818684 -311.320032 
L 248.251232 -308.75137 
L 244.13913 -304.281849 
L 240.707839 -299.014864 
L 236.350645 -292.351475 
L 233.028284 -286.374295 
L 228.67109 -278.794317 
L 224.313896 -269.217646 
L 219.956701 -259.172574 
L 215.599507 -255.08396 
L 211.242313 -246.165758 
L 206.885119 -241.131841 
L 202.527924 -234.134147 
L 198.334125 -227.11007 
L 194.930067 -221.081282 
L 192.261285 -218.421891 
L 187.904091 -212.691672 
L 183.546897 -206.648827 
L 179.189702 -202.103933 
L 174.832508 -197.188392 
L 170.720406 -191.506086 
L 166.526607 -185.95336 
L 162.577899 -179.958868 
L 159.119376 -171.793973 
L 157.322034 -169.823842 
L 154.244765 -164.359628 
L 151.085799 -158.890471 
L 148.199158 -153.9574 
L 146.320118 -152.432974 
L 144.059824 -151.174487 
L 142.480341 -150.158346 
L 140.682998 -150.854222 
L 139.294142 -152.236119 
L 138.232076 -154.460949 
L 135.590527 -151.751885 
L 134.038277 -152.670199 
L 130.852078 -149.270036 
L 128.727946 -148.830727 
L 126.603814 -147.64967 
L 124.779239 -148.353072 
L 122.518944 -147.039301 
L 119.768465 -143.795203 
L 117.263079 -142.283119 
L 114.29474 -135.45259 
L 111.081309 -128.423477 
L 108.65762 -122.656416 
L 106.342861 -118.536694 
L 104.491053 -117.553651 
L 103.864706 -120.727215 
L 102.748175 -123.769259 
L 101.413785 -127.368713 
L 100.215556 -134.877809 
L 98.93563 -145.076671 
L 97.328915 -158.019931 
L 95.368178 -172.890969 
L 93.870392 -224.652721 
z
" style="stroke: #b22222; stroke-opacity: 0.4"/>
    </defs>
    <g clip-path="url(#p7cfeb481b8)">
     <use xlink:href="#mbf3374c97e" x="0" y="432" style="fill: #b22222; fill-opacity: 0.4; stroke: #b22222; stroke-opacity: 0.4"/>
    </g>
   </g>
   <g id="PolyCollection_3">
    <defs>
     <path id="ma4b0d82891" d="M 92.318142 -100.039785 
L 92.318142 -68.825455 
L 93.788695 -74.690286 
L 94.632901 -69.287413 
L 95.586037 -73.86282 
L 96.838731 -93.195326 
L 98.690538 -102.711671 
L 100.324486 -106.204418 
L 102.040131 -110.119587 
L 102.69371 -105.015873 
L 104.89954 -111.41811 
L 105.689281 -106.72927 
L 107.078137 -108.565409 
L 108.929945 -110.658118 
L 109.610756 -106.429817 
L 110.672822 -105.427056 
L 111.734889 -105.380768 
L 112.987582 -104.104438 
L 115.438504 -109.29557 
L 117.453706 -111.605294 
L 118.624702 -111.07928 
L 119.986325 -110.461977 
L 121.593041 -112.724264 
L 122.491712 -111.098743 
L 124.261822 -113.079535 
L 126.031932 -112.798023 
L 126.712744 -113.878844 
L 129.463223 -118.540241 
L 130.824846 -120.60534 
L 132.349864 -122.193486 
L 133.847649 -119.539289 
L 137.17001 -121.314965 
L 138.994585 -123.40644 
L 141.391042 -125.561596 
L 144.604473 -133.194062 
L 147.409417 -135.593921 
L 150.65008 -143.661557 
L 153.346094 -144.29398 
L 155.987643 -148.972493 
L 159.664026 -158.530936 
L 162.931921 -163.607773 
L 166.199817 -169.254396 
L 168.814134 -177.527446 
L 172.327121 -180.506136 
L 176.684316 -188.591961 
L 180.959813 -198.4528 
L 184.418336 -203.81923 
L 188.77553 -211.108117 
L 193.078259 -222.43924 
L 196.482317 -227.055037 
L 200.839511 -238.068619 
L 205.196706 -247.461751 
L 209.5539 -254.035651 
L 213.911094 -261.702908 
L 218.268289 -269.987916 
L 222.625483 -280.800999 
L 225.593821 -283.948523 
L 229.297437 -290.219519 
L 233.654631 -297.236861 
L 238.011825 -300.715423 
L 241.742673 -304.51088 
L 246.099867 -306.985101 
L 250.457061 -314.932092 
L 254.351304 -317.688471 
L 258.708498 -320.109621 
L 262.167021 -322.056348 
L 266.524215 -323.582873 
L 270.881409 -324.822254 
L 274.339932 -324.706091 
L 277.580596 -320.858263 
L 280.902956 -320.216991 
L 285.260151 -322.117708 
L 289.263323 -321.107105 
L 293.53882 -320.554872 
L 297.623689 -320.549079 
L 301.980884 -318.707547 
L 306.338078 -315.834398 
L 309.687671 -312.404777 
L 313.908703 -313.585936 
L 318.265897 -314.513311 
L 322.623091 -312.200278 
L 326.980286 -310.949847 
L 331.33748 -308.286507 
L 335.177257 -310.705945 
L 338.608548 -310.890454 
L 341.440724 -308.263531 
L 345.607291 -309.450839 
L 349.964486 -307.528538 
L 354.294447 -308.07604 
L 358.651642 -309.612213 
L 361.756143 -309.054591 
L 366.113337 -305.515993 
L 368.645956 -304.350321 
L 372.866988 -304.040042 
L 377.224182 -305.354529 
L 380.873332 -306.83807 
L 384.113996 -306.058824 
L 388.47119 -305.961255 
L 392.093108 -306.529724 
L 396.450302 -307.337379 
L 399.119083 -307.425831 
L 403.476278 -306.222925 
L 407.234358 -309.774926 
L 411.264763 -310.764469 
L 415.513027 -308.915864 
L 419.026015 -307.633505 
L 422.865792 -305.292343 
L 426.324315 -304.490617 
L 430.490882 -302.034083 
L 434.575752 -299.389763 
L 438.551692 -298.608166 
L 441.465565 -297.108382 
L 445.82276 -296.159098 
L 450.043792 -297.717096 
L 454.183126 -297.919568 
L 457.097 -296.676596 
L 460.255966 -301.372176 
L 463.714489 -303.108194 
L 468.071683 -304.211704 
L 472.047623 -303.492798 
L 475.941865 -296.660886 
L 478.828506 -294.735834 
L 478.828506 -305.46697 
L 478.828506 -305.46697 
L 475.941865 -306.391318 
L 472.047623 -306.881718 
L 468.071683 -308.197291 
L 463.714489 -307.583321 
L 460.255966 -304.559323 
L 457.097 -306.989125 
L 454.183126 -309.989461 
L 450.043792 -310.537335 
L 445.82276 -309.713418 
L 441.465565 -312.394503 
L 438.551692 -317.273926 
L 434.575752 -315.303508 
L 430.490882 -315.826887 
L 426.324315 -314.031684 
L 422.865792 -313.977543 
L 419.026015 -315.900691 
L 415.513027 -317.544768 
L 411.264763 -316.248903 
L 407.234358 -318.558617 
L 403.476278 -316.845086 
L 399.119083 -317.39899 
L 396.450302 -320.004461 
L 392.093108 -319.698693 
L 388.47119 -321.105166 
L 384.113996 -320.328022 
L 380.873332 -321.890867 
L 377.224182 -320.526489 
L 372.866988 -317.846995 
L 368.645956 -317.205262 
L 366.113337 -323.758897 
L 361.756143 -324.793521 
L 358.651642 -324.899528 
L 354.294447 -324.048382 
L 349.964486 -324.593598 
L 345.607291 -325.426667 
L 341.440724 -326.08036 
L 338.608548 -327.398977 
L 335.177257 -329.30584 
L 331.33748 -329.478538 
L 326.980286 -329.130886 
L 322.623091 -326.056646 
L 318.265897 -325.205929 
L 313.908703 -326.42592 
L 309.687671 -326.755537 
L 306.338078 -326.908905 
L 301.980884 -327.185848 
L 297.623689 -327.508797 
L 293.53882 -325.95902 
L 289.263323 -325.434058 
L 285.260151 -327.346689 
L 280.902956 -325.01316 
L 277.580596 -328.594966 
L 274.339932 -330.228538 
L 270.881409 -330.353604 
L 266.524215 -326.912122 
L 262.167021 -324.059741 
L 258.708498 -324.02978 
L 254.351304 -324.875198 
L 250.457061 -322.136456 
L 246.099867 -320.481963 
L 241.742673 -319.246696 
L 238.011825 -318.561047 
L 233.654631 -314.027612 
L 229.297437 -314.481987 
L 225.593821 -309.357369 
L 222.625483 -304.850032 
L 218.268289 -299.548055 
L 213.911094 -294.611234 
L 209.5539 -290.700006 
L 205.196706 -287.523357 
L 200.839511 -282.392878 
L 196.482317 -276.339738 
L 193.078259 -266.724758 
L 188.77553 -259.466453 
L 184.418336 -256.114749 
L 180.959813 -246.234329 
L 176.684316 -235.599685 
L 172.327121 -227.894707 
L 168.814134 -220.85672 
L 166.199817 -217.937449 
L 162.931921 -209.669862 
L 159.664026 -204.257736 
L 155.987643 -196.661012 
L 153.346094 -194.690543 
L 150.65008 -186.298942 
L 147.409417 -182.067038 
L 144.604473 -173.982315 
L 141.391042 -168.046845 
L 138.994585 -166.556672 
L 137.17001 -161.981096 
L 133.847649 -157.878061 
L 132.349864 -158.790726 
L 130.824846 -153.871927 
L 129.463223 -148.508604 
L 126.712744 -147.803021 
L 126.031932 -142.029864 
L 124.261822 -141.596478 
L 122.491712 -142.776339 
L 121.593041 -144.315973 
L 119.986325 -137.698732 
L 118.624702 -140.906043 
L 117.453706 -143.515722 
L 115.438504 -142.858861 
L 112.987582 -141.469203 
L 111.734889 -139.100811 
L 110.672822 -138.934488 
L 109.610756 -134.990409 
L 108.929945 -136.767817 
L 107.078137 -135.407521 
L 105.689281 -137.266147 
L 104.89954 -131.499068 
L 102.69371 -132.065578 
L 102.040131 -136.026802 
L 100.324486 -130.023252 
L 98.690538 -136.241776 
L 96.838731 -134.379458 
L 95.586037 -115.59426 
L 94.632901 -120.532117 
L 93.788695 -121.200483 
L 92.318142 -100.039785 
z
" style="stroke: #2e8b57; stroke-opacity: 0.4"/>
    </defs>
    <g clip-path="url(#p7cfeb481b8)">
     <use xlink:href="#ma4b0d82891" x="0" y="432" style="fill: #2e8b57; fill-opacity: 0.4; stroke: #2e8b57; stroke-opacity: 0.4"/>
    </g>
   </g>
   <g id="PolyCollection_4">
    <defs>
     <path id="mafa09a386b" d="M 92.290909 -170.077117 
L 92.290909 -70.638519 
L 94.006554 -84.056837 
L 96.076222 -110.924616 
L 98.93563 -114.616413 
L 100.133859 -119.684989 
L 102.339688 -116.086963 
L 104.109799 -126.754291 
L 107.023672 -123.049603 
L 109.610756 -123.045012 
L 110.727287 -128.058603 
L 113.423301 -129.011307 
L 115.656363 -129.404589 
L 119.114886 -124.814322 
L 121.565808 -126.488288 
L 124.425217 -127.263143 
L 127.584183 -129.978071 
L 130.443591 -137.092695 
L 132.976211 -138.818164 
L 135.61776 -142.433208 
L 138.967353 -141.13778 
L 142.6982 -140.971254 
L 147.055395 -139.470126 
L 151.004102 -140.034166 
L 155.034507 -141.250205 
L 157.676056 -141.195852 
L 160.780557 -141.431487 
L 164.456939 -145.282375 
L 168.051625 -147.443183 
L 171.836937 -147.859704 
L 175.213763 -142.549098 
L 178.427193 -145.701213 
L 182.784388 -144.543242 
L 186.78756 -149.737287 
L 191.144754 -150.069436 
L 195.501948 -147.024016 
L 199.641283 -150.826159 
L 203.998477 -149.066813 
L 207.457 -151.085454 
L 211.814195 -149.232012 
L 216.035227 -146.291383 
L 219.657144 -149.742712 
L 224.014339 -148.765998 
L 228.371533 -151.19193 
L 232.728727 -146.413946 
L 236.786364 -143.725863 
L 241.143559 -142.332679 
L 244.956104 -144.363183 
L 249.313298 -143.260234 
L 253.670492 -138.573532 
L 258.027686 -136.608538 
L 261.840231 -132.190931 
L 265.543846 -129.406009 
L 269.901041 -128.540692 
L 274.258235 -128.706619 
L 278.615429 -129.176891 
L 282.972624 -129.853327 
L 287.329818 -130.077628 
L 291.169595 -126.495489 
L 295.52679 -129.641379 
L 299.883984 -125.99656 
L 304.241178 -119.84057 
L 308.598372 -124.209527 
L 312.955567 -125.58976 
L 317.312761 -127.88003 
L 321.669955 -132.424272 
L 325.754825 -132.717 
L 329.485672 -136.547057 
L 330.466041 -133.733277 
L 333.54331 -136.705091 
L 337.246925 -140.433799 
L 340.324193 -145.470857 
L 344.245668 -146.254052 
L 348.602862 -147.519063 
L 352.960057 -151.27216 
L 357.317251 -155.54921 
L 361.674445 -158.837226 
L 365.841012 -157.147078 
L 370.198206 -155.427131 
L 374.555401 -152.564808 
L 378.912595 -153.714913 
L 383.269789 -156.406953 
L 387.626984 -157.903826 
L 391.984178 -157.902757 
L 396.341372 -155.174685 
L 400.698566 -159.876866 
L 405.055761 -163.786498 
L 409.412955 -165.738228 
L 413.770149 -164.805399 
L 418.127343 -172.482609 
L 422.484538 -177.807199 
L 426.841732 -183.089098 
L 431.198926 -182.194965 
L 435.556121 -190.807554 
L 439.913315 -195.047706 
L 444.270509 -201.923438 
L 448.627703 -209.265559 
L 452.984898 -217.392274 
L 457.342092 -226.592238 
L 461.699286 -235.329127 
L 466.056481 -240.664138 
L 470.413675 -249.649466 
L 474.770869 -259.596696 
L 479.128063 -265.729378 
L 483.485258 -274.958507 
L 487.842452 -283.327066 
L 492.199646 -288.109734 
L 496.55684 -294.320103 
L 496.55684 -361.836336 
L 496.55684 -361.836336 
L 492.199646 -362.854154 
L 487.842452 -363.831753 
L 483.485258 -365.334545 
L 479.128063 -362.218902 
L 474.770869 -358.855297 
L 470.413675 -357.067059 
L 466.056481 -357.236458 
L 461.699286 -358.060852 
L 457.342092 -358.384056 
L 452.984898 -358.57552 
L 448.627703 -357.323758 
L 444.270509 -355.914891 
L 439.913315 -352.492293 
L 435.556121 -345.949287 
L 431.198926 -335.819502 
L 426.841732 -332.842942 
L 422.484538 -330.399794 
L 418.127343 -328.233337 
L 413.770149 -326.628855 
L 409.412955 -322.747428 
L 405.055761 -320.488855 
L 400.698566 -317.898709 
L 396.341372 -314.079949 
L 391.984178 -309.675304 
L 387.626984 -305.732281 
L 383.269789 -303.940413 
L 378.912595 -302.713618 
L 374.555401 -300.112059 
L 370.198206 -300.020187 
L 365.841012 -300.126431 
L 361.674445 -298.954603 
L 357.317251 -295.570368 
L 352.960057 -293.922536 
L 348.602862 -292.156279 
L 344.245668 -291.264519 
L 340.324193 -290.506539 
L 337.246925 -292.702465 
L 333.54331 -292.909383 
L 330.466041 -296.031856 
L 329.485672 -305.679725 
L 325.754825 -306.810043 
L 321.669955 -305.452127 
L 317.312761 -304.300601 
L 312.955567 -303.824862 
L 308.598372 -301.134307 
L 304.241178 -300.457328 
L 299.883984 -300.813212 
L 295.52679 -301.33877 
L 291.169595 -300.901652 
L 287.329818 -302.065635 
L 282.972624 -302.300822 
L 278.615429 -298.916525 
L 274.258235 -296.571022 
L 269.901041 -295.325994 
L 265.543846 -293.856867 
L 261.840231 -294.240414 
L 258.027686 -293.621281 
L 253.670492 -288.85892 
L 249.313298 -289.695339 
L 244.956104 -288.739101 
L 241.143559 -289.919651 
L 236.786364 -288.511218 
L 232.728727 -288.421168 
L 228.371533 -285.643491 
L 224.014339 -281.262387 
L 219.657144 -278.33347 
L 216.035227 -279.001922 
L 211.814195 -276.328631 
L 207.457 -273.445113 
L 203.998477 -272.61758 
L 199.641283 -267.857213 
L 195.501948 -262.435214 
L 191.144754 -253.918147 
L 186.78756 -249.337442 
L 182.784388 -244.103174 
L 178.427193 -236.814777 
L 175.213763 -233.797405 
L 171.836937 -225.586131 
L 168.051625 -221.486518 
L 164.456939 -215.114645 
L 160.780557 -209.384225 
L 157.676056 -203.120755 
L 155.034507 -203.993814 
L 151.004102 -198.772987 
L 147.055395 -195.333718 
L 142.6982 -190.134193 
L 138.967353 -186.575053 
L 135.61776 -180.937997 
L 132.976211 -178.024957 
L 130.443591 -176.14427 
L 127.584183 -172.54427 
L 124.425217 -168.777526 
L 121.565808 -165.728399 
L 119.114886 -164.58138 
L 115.656363 -159.751678 
L 113.423301 -159.260333 
L 110.727287 -156.83806 
L 109.610756 -158.211232 
L 107.023672 -153.522005 
L 104.109799 -144.858852 
L 102.339688 -147.162337 
L 100.133859 -147.277661 
L 98.93563 -144.623578 
L 96.076222 -134.959056 
L 94.006554 -167.45857 
L 92.290909 -170.077117 
z
" style="stroke: #ff8c00; stroke-opacity: 0.4"/>
    </defs>
    <g clip-path="url(#p7cfeb481b8)">
     <use xlink:href="#mafa09a386b" x="0" y="432" style="fill: #ff8c00; fill-opacity: 0.4; stroke: #ff8c00; stroke-opacity: 0.4"/>
    </g>
   </g>
   <g id="matplotlib.axis_1">
    <g id="xtick_1">
     <g id="line2d_1">
      <path d="M 91.473935 378 
L 91.473935 51.84 
" clip-path="url(#p7cfeb481b8)" style="fill: none; stroke: #b0b0b0; stroke-width: 0.8; stroke-linecap: square"/>
     </g>
     <g id="line2d_2">
      <defs>
       <path id="me1781f1a4f" d="M 0 0 
L 0 3.5 
" style="stroke: #000000; stroke-width: 0.8"/>
      </defs>
      <g>
       <use xlink:href="#me1781f1a4f" x="91.473935" y="378" style="stroke: #000000; stroke-width: 0.8"/>
      </g>
     </g>
     <g id="text_1">
      <!-- 0 -->
      <g transform="translate(85.973935 400.125)scale(0.22 -0.22)">
       <defs>
        <path id="SimHei-30" d="M 225 2537 
Q 250 3200 412 3587 
Q 575 3975 875 4225 
Q 1175 4475 1612 4475 
Q 2050 4475 2375 4112 
Q 2700 3750 2800 3200 
Q 2900 2650 2862 1937 
Q 2825 1225 2612 775 
Q 2400 325 1975 150 
Q 1550 -25 1125 187 
Q 700 400 525 750 
Q 350 1100 275 1487 
Q 200 1875 225 2537 
z
M 750 2687 
Q 675 2000 800 1462 
Q 925 925 1212 700 
Q 1500 475 1800 612 
Q 2100 750 2237 1162 
Q 2375 1575 2375 2062 
Q 2375 2550 2337 2950 
Q 2300 3350 2112 3675 
Q 1925 4000 1612 4012 
Q 1300 4025 1062 3700 
Q 825 3375 750 2687 
z
" transform="scale(0.015625)"/>
       </defs>
       <use xlink:href="#SimHei-30"/>
      </g>
     </g>
    </g>
    <g id="xtick_2">
     <g id="line2d_3">
      <path d="M 227.636256 378 
L 227.636256 51.84 
" clip-path="url(#p7cfeb481b8)" style="fill: none; stroke: #b0b0b0; stroke-width: 0.8; stroke-linecap: square"/>
     </g>
     <g id="line2d_4">
      <g>
       <use xlink:href="#me1781f1a4f" x="227.636256" y="378" style="stroke: #000000; stroke-width: 0.8"/>
      </g>
     </g>
     <g id="text_2">
      <!-- 5000 -->
      <g transform="translate(205.636256 400.125)scale(0.22 -0.22)">
       <defs>
        <path id="SimHei-35" d="M 550 1325 
Q 725 650 1150 575 
Q 1575 500 1837 662 
Q 2100 825 2212 1087 
Q 2325 1350 2312 1675 
Q 2300 2000 2137 2225 
Q 1975 2450 1725 2525 
Q 1475 2600 1162 2525 
Q 850 2450 650 2175 
L 225 2225 
Q 275 2375 700 4375 
L 2675 4375 
L 2675 3925 
L 1075 3925 
Q 950 3250 825 2850 
Q 1200 3025 1525 3012 
Q 1850 3000 2150 2862 
Q 2450 2725 2587 2487 
Q 2725 2250 2787 2012 
Q 2850 1775 2837 1500 
Q 2825 1225 2725 937 
Q 2625 650 2425 462 
Q 2225 275 1937 162 
Q 1650 50 1275 75 
Q 900 100 562 350 
Q 225 600 100 1200 
L 550 1325 
z
" transform="scale(0.015625)"/>
       </defs>
       <use xlink:href="#SimHei-35"/>
       <use xlink:href="#SimHei-30" x="50"/>
       <use xlink:href="#SimHei-30" x="100"/>
       <use xlink:href="#SimHei-30" x="150"/>
      </g>
     </g>
    </g>
    <g id="xtick_3">
     <g id="line2d_5">
      <path d="M 363.798577 378 
L 363.798577 51.84 
" clip-path="url(#p7cfeb481b8)" style="fill: none; stroke: #b0b0b0; stroke-width: 0.8; stroke-linecap: square"/>
     </g>
     <g id="line2d_6">
      <g>
       <use xlink:href="#me1781f1a4f" x="363.798577" y="378" style="stroke: #000000; stroke-width: 0.8"/>
      </g>
     </g>
     <g id="text_3">
      <!-- 10000 -->
      <g transform="translate(336.298577 400.125)scale(0.22 -0.22)">
       <defs>
        <path id="SimHei-31" d="M 1400 3600 
Q 1075 3275 575 2975 
L 575 3450 
Q 1200 3875 1600 4450 
L 1900 4450 
L 1900 150 
L 1400 150 
L 1400 3600 
z
" transform="scale(0.015625)"/>
       </defs>
       <use xlink:href="#SimHei-31"/>
       <use xlink:href="#SimHei-30" x="50"/>
       <use xlink:href="#SimHei-30" x="100"/>
       <use xlink:href="#SimHei-30" x="150"/>
       <use xlink:href="#SimHei-30" x="200"/>
      </g>
     </g>
    </g>
    <g id="xtick_4">
     <g id="line2d_7">
      <path d="M 499.960898 378 
L 499.960898 51.84 
" clip-path="url(#p7cfeb481b8)" style="fill: none; stroke: #b0b0b0; stroke-width: 0.8; stroke-linecap: square"/>
     </g>
     <g id="line2d_8">
      <g>
       <use xlink:href="#me1781f1a4f" x="499.960898" y="378" style="stroke: #000000; stroke-width: 0.8"/>
      </g>
     </g>
     <g id="text_4">
      <!-- 15000 -->
      <g transform="translate(472.460898 400.125)scale(0.22 -0.22)">
       <use xlink:href="#SimHei-31"/>
       <use xlink:href="#SimHei-35" x="50"/>
       <use xlink:href="#SimHei-30" x="100"/>
       <use xlink:href="#SimHei-30" x="150"/>
       <use xlink:href="#SimHei-30" x="200"/>
      </g>
     </g>
    </g>
    <g id="text_5">
     <!-- Training step -->
     <g transform="translate(223.7 422)scale(0.22 -0.22)">
      <defs>
       <path id="SimHei-54" d="M 2850 3925 
L 1850 3925 
L 1850 125 
L 1275 125 
L 1275 3925 
L 275 3925 
L 275 4400 
L 2850 4400 
L 2850 3925 
z
" transform="scale(0.015625)"/>
       <path id="SimHei-72" d="M 2500 2425 
Q 2025 2500 1700 2287 
Q 1375 2075 1150 1550 
L 1150 125 
L 650 125 
L 650 2925 
L 1150 2925 
L 1150 2200 
Q 1375 2600 1712 2787 
Q 2050 2975 2500 2975 
L 2500 2425 
z
" transform="scale(0.015625)"/>
       <path id="SimHei-61" d="M 2875 125 
L 2275 125 
Q 2225 175 2200 262 
Q 2175 350 2175 475 
Q 2000 275 1750 175 
Q 1500 75 1225 75 
Q 825 75 550 275 
Q 275 475 275 850 
Q 275 1225 525 1450 
Q 775 1675 1300 1750 
Q 1650 1800 1912 1875 
Q 2175 1950 2175 2075 
Q 2175 2225 2062 2375 
Q 1950 2525 1575 2525 
Q 1275 2525 1137 2412 
Q 1000 2300 950 2100 
L 400 2100 
Q 450 2500 762 2737 
Q 1075 2975 1575 2975 
Q 2125 2975 2400 2725 
Q 2675 2475 2675 2025 
L 2675 650 
Q 2675 500 2725 375 
Q 2775 250 2875 125 
z
M 2175 1050 
L 2175 1550 
Q 2025 1500 1887 1462 
Q 1750 1425 1425 1375 
Q 1050 1325 937 1200 
Q 825 1075 825 900 
Q 825 750 937 637 
Q 1050 525 1275 525 
Q 1500 525 1762 650 
Q 2025 775 2175 1050 
z
" transform="scale(0.015625)"/>
       <path id="SimHei-69" d="M 1800 3725 
L 1300 3725 
L 1300 4375 
L 1800 4375 
L 1800 3725 
z
M 1800 125 
L 1300 125 
L 1300 2925 
L 1800 2925 
L 1800 125 
z
" transform="scale(0.015625)"/>
       <path id="SimHei-6e" d="M 2800 125 
L 2300 125 
L 2300 1925 
Q 2300 2225 2150 2400 
Q 2000 2575 1750 2575 
Q 1425 2575 1137 2237 
Q 850 1900 850 1400 
L 850 125 
L 350 125 
L 350 2925 
L 850 2925 
L 850 2400 
Q 1050 2675 1287 2825 
Q 1525 2975 1900 2975 
Q 2350 2975 2575 2725 
Q 2800 2475 2800 2100 
L 2800 125 
z
" transform="scale(0.015625)"/>
       <path id="SimHei-67" d="M 2975 2500 
Q 2800 2550 2637 2562 
Q 2475 2575 2300 2525 
Q 2375 2450 2425 2337 
Q 2475 2225 2475 2000 
Q 2475 1575 2187 1300 
Q 1900 1025 1475 1025 
Q 1375 1025 1212 1062 
Q 1050 1100 950 1150 
Q 875 1100 850 1050 
Q 825 1000 825 925 
Q 825 800 1000 737 
Q 1175 675 1625 675 
Q 2350 675 2612 475 
Q 2875 275 2875 -25 
Q 2875 -425 2487 -612 
Q 2100 -800 1575 -800 
Q 900 -800 575 -625 
Q 250 -450 250 -150 
Q 250 0 375 150 
Q 500 300 700 400 
Q 550 475 462 587 
Q 375 700 375 875 
Q 375 1025 487 1137 
Q 600 1250 750 1325 
Q 625 1450 550 1625 
Q 475 1800 475 2000 
Q 475 2425 762 2700 
Q 1050 2975 1475 2975 
Q 1700 2975 1862 2912 
Q 2025 2850 2150 2725 
Q 2350 2875 2550 2937 
Q 2750 3000 2975 2975 
L 2975 2500 
z
M 1975 2000 
Q 1975 2250 1850 2400 
Q 1725 2550 1475 2550 
Q 1225 2550 1100 2400 
Q 975 2250 975 2000 
Q 975 1750 1100 1600 
Q 1225 1450 1475 1450 
Q 1725 1450 1850 1600 
Q 1975 1750 1975 2000 
z
M 2400 -75 
Q 2400 25 2287 125 
Q 2175 225 1725 225 
Q 1625 225 1450 237 
Q 1275 250 1050 275 
Q 850 200 775 100 
Q 700 0 700 -100 
Q 700 -250 900 -350 
Q 1100 -450 1600 -450 
Q 2025 -450 2212 -337 
Q 2400 -225 2400 -75 
z
" transform="scale(0.015625)"/>
       <path id="SimHei-20" transform="scale(0.015625)"/>
       <path id="SimHei-73" d="M 2750 900 
Q 2750 500 2437 287 
Q 2125 75 1650 75 
Q 1050 75 725 312 
Q 400 550 400 1000 
L 900 1000 
Q 900 700 1112 600 
Q 1325 500 1625 500 
Q 1925 500 2075 612 
Q 2225 725 2225 900 
Q 2225 1025 2100 1150 
Q 1975 1275 1475 1350 
Q 900 1425 687 1637 
Q 475 1850 475 2200 
Q 475 2500 762 2737 
Q 1050 2975 1600 2975 
Q 2100 2975 2387 2750 
Q 2675 2525 2675 2150 
L 2175 2150 
Q 2175 2375 2012 2462 
Q 1850 2550 1600 2550 
Q 1275 2550 1137 2437 
Q 1000 2325 1000 2175 
Q 1000 2000 1125 1900 
Q 1250 1800 1650 1750 
Q 2300 1650 2525 1437 
Q 2750 1225 2750 900 
z
" transform="scale(0.015625)"/>
       <path id="SimHei-74" d="M 2750 200 
Q 2625 150 2462 112 
Q 2300 75 2025 75 
Q 1575 75 1300 325 
Q 1025 575 1025 1025 
L 1025 2525 
L 175 2525 
L 175 2925 
L 1025 2925 
L 1025 3900 
L 1525 3900 
L 1525 2925 
L 2550 2925 
L 2550 2525 
L 1525 2525 
L 1525 1000 
Q 1525 800 1625 662 
Q 1725 525 2000 525 
Q 2275 525 2450 575 
Q 2625 625 2750 700 
L 2750 200 
z
" transform="scale(0.015625)"/>
       <path id="SimHei-65" d="M 2850 1075 
Q 2800 625 2450 350 
Q 2100 75 1625 75 
Q 1025 75 637 462 
Q 250 850 250 1525 
Q 250 2200 637 2587 
Q 1025 2975 1625 2975 
Q 2150 2975 2487 2637 
Q 2825 2300 2825 1525 
L 800 1525 
Q 800 975 1037 750 
Q 1275 525 1625 525 
Q 1900 525 2075 662 
Q 2250 800 2300 1075 
L 2850 1075 
z
M 2250 1925 
Q 2200 2275 2025 2412 
Q 1850 2550 1575 2550 
Q 1325 2550 1125 2412 
Q 925 2275 825 1925 
L 2250 1925 
z
" transform="scale(0.015625)"/>
       <path id="SimHei-70" d="M 2825 1525 
Q 2825 800 2475 425 
Q 2125 50 1625 50 
Q 1350 50 1150 162 
Q 950 275 800 500 
L 800 -800 
L 300 -800 
L 300 2925 
L 800 2925 
L 800 2550 
Q 950 2775 1150 2875 
Q 1350 2975 1625 2975 
Q 2125 2975 2475 2612 
Q 2825 2250 2825 1525 
z
M 2275 1525 
Q 2275 2000 2087 2262 
Q 1900 2525 1525 2525 
Q 1225 2525 1012 2262 
Q 800 2000 800 1525 
Q 800 1050 1012 775 
Q 1225 500 1525 500 
Q 1900 500 2087 775 
Q 2275 1050 2275 1525 
z
" transform="scale(0.015625)"/>
      </defs>
      <use xlink:href="#SimHei-54"/>
      <use xlink:href="#SimHei-72" x="50"/>
      <use xlink:href="#SimHei-61" x="100"/>
      <use xlink:href="#SimHei-69" x="150"/>
      <use xlink:href="#SimHei-6e" x="200"/>
      <use xlink:href="#SimHei-69" x="250"/>
      <use xlink:href="#SimHei-6e" x="300"/>
      <use xlink:href="#SimHei-67" x="350"/>
      <use xlink:href="#SimHei-20" x="400"/>
      <use xlink:href="#SimHei-73" x="450"/>
      <use xlink:href="#SimHei-74" x="500"/>
      <use xlink:href="#SimHei-65" x="550"/>
      <use xlink:href="#SimHei-70" x="600"/>
     </g>
    </g>
   </g>
   <g id="matplotlib.axis_2">
    <g id="ytick_1">
     <g id="line2d_9">
      <path d="M 72 331.256883 
L 518.4 331.256883 
" clip-path="url(#p7cfeb481b8)" style="fill: none; stroke: #b0b0b0; stroke-width: 0.8; stroke-linecap: square"/>
     </g>
     <g id="line2d_10">
      <defs>
       <path id="m668ae85aaa" d="M 0 0 
L -3.5 0 
" style="stroke: #000000; stroke-width: 0.8"/>
      </defs>
      <g>
       <use xlink:href="#m668ae85aaa" x="72" y="331.256883" style="stroke: #000000; stroke-width: 0.8"/>
      </g>
     </g>
     <g id="text_6">
      <!-- 10 -->
      <g transform="translate(43 338.819383)scale(0.22 -0.22)">
       <use xlink:href="#SimHei-31"/>
       <use xlink:href="#SimHei-30" x="50"/>
      </g>
     </g>
    </g>
    <g id="ytick_2">
     <g id="line2d_11">
      <path d="M 72 283.933647 
L 518.4 283.933647 
" clip-path="url(#p7cfeb481b8)" style="fill: none; stroke: #b0b0b0; stroke-width: 0.8; stroke-linecap: square"/>
     </g>
     <g id="line2d_12">
      <g>
       <use xlink:href="#m668ae85aaa" x="72" y="283.933647" style="stroke: #000000; stroke-width: 0.8"/>
      </g>
     </g>
     <g id="text_7">
      <!-- 15 -->
      <g transform="translate(43 291.496147)scale(0.22 -0.22)">
       <use xlink:href="#SimHei-31"/>
       <use xlink:href="#SimHei-35" x="50"/>
      </g>
     </g>
    </g>
    <g id="ytick_3">
     <g id="line2d_13">
      <path d="M 72 236.610411 
L 518.4 236.610411 
" clip-path="url(#p7cfeb481b8)" style="fill: none; stroke: #b0b0b0; stroke-width: 0.8; stroke-linecap: square"/>
     </g>
     <g id="line2d_14">
      <g>
       <use xlink:href="#m668ae85aaa" x="72" y="236.610411" style="stroke: #000000; stroke-width: 0.8"/>
      </g>
     </g>
     <g id="text_8">
      <!-- 20 -->
      <g transform="translate(43 244.172911)scale(0.22 -0.22)">
       <defs>
        <path id="SimHei-32" d="M 300 250 
Q 325 625 650 925 
Q 975 1225 1475 1862 
Q 1975 2500 2125 2850 
Q 2275 3200 2237 3450 
Q 2200 3700 2000 3862 
Q 1800 4025 1537 4000 
Q 1275 3975 1037 3800 
Q 800 3625 675 3275 
L 200 3350 
Q 400 3925 712 4187 
Q 1025 4450 1450 4475 
Q 1700 4500 1900 4462 
Q 2100 4425 2312 4287 
Q 2525 4150 2662 3875 
Q 2800 3600 2762 3212 
Q 2725 2825 2375 2287 
Q 2025 1750 1025 600 
L 2825 600 
L 2825 150 
L 300 150 
L 300 250 
z
" transform="scale(0.015625)"/>
       </defs>
       <use xlink:href="#SimHei-32"/>
       <use xlink:href="#SimHei-30" x="50"/>
      </g>
     </g>
    </g>
    <g id="ytick_4">
     <g id="line2d_15">
      <path d="M 72 189.287174 
L 518.4 189.287174 
" clip-path="url(#p7cfeb481b8)" style="fill: none; stroke: #b0b0b0; stroke-width: 0.8; stroke-linecap: square"/>
     </g>
     <g id="line2d_16">
      <g>
       <use xlink:href="#m668ae85aaa" x="72" y="189.287174" style="stroke: #000000; stroke-width: 0.8"/>
      </g>
     </g>
     <g id="text_9">
      <!-- 25 -->
      <g transform="translate(43 196.849674)scale(0.22 -0.22)">
       <use xlink:href="#SimHei-32"/>
       <use xlink:href="#SimHei-35" x="50"/>
      </g>
     </g>
    </g>
    <g id="ytick_5">
     <g id="line2d_17">
      <path d="M 72 141.963938 
L 518.4 141.963938 
" clip-path="url(#p7cfeb481b8)" style="fill: none; stroke: #b0b0b0; stroke-width: 0.8; stroke-linecap: square"/>
     </g>
     <g id="line2d_18">
      <g>
       <use xlink:href="#m668ae85aaa" x="72" y="141.963938" style="stroke: #000000; stroke-width: 0.8"/>
      </g>
     </g>
     <g id="text_10">
      <!-- 30 -->
      <g transform="translate(43 149.526438)scale(0.22 -0.22)">
       <defs>
        <path id="SimHei-33" d="M 250 1225 
L 700 1300 
Q 800 975 1025 762 
Q 1250 550 1587 562 
Q 1925 575 2125 837 
Q 2325 1100 2300 1437 
Q 2275 1775 2037 1962 
Q 1800 2150 1275 2225 
L 1275 2550 
Q 1800 2600 2037 2825 
Q 2275 3050 2250 3412 
Q 2225 3775 1925 3937 
Q 1625 4100 1287 3975 
Q 950 3850 750 3275 
L 300 3350 
Q 450 3800 712 4100 
Q 975 4400 1425 4450 
Q 1875 4500 2212 4337 
Q 2550 4175 2687 3837 
Q 2825 3500 2725 3100 
Q 2625 2700 2150 2400 
Q 2500 2250 2687 1950 
Q 2875 1650 2812 1162 
Q 2750 675 2375 375 
Q 2000 75 1525 87 
Q 1050 100 700 387 
Q 350 675 250 1225 
z
" transform="scale(0.015625)"/>
       </defs>
       <use xlink:href="#SimHei-33"/>
       <use xlink:href="#SimHei-30" x="50"/>
      </g>
     </g>
    </g>
    <g id="ytick_6">
     <g id="line2d_19">
      <path d="M 72 94.640702 
L 518.4 94.640702 
" clip-path="url(#p7cfeb481b8)" style="fill: none; stroke: #b0b0b0; stroke-width: 0.8; stroke-linecap: square"/>
     </g>
     <g id="line2d_20">
      <g>
       <use xlink:href="#m668ae85aaa" x="72" y="94.640702" style="stroke: #000000; stroke-width: 0.8"/>
      </g>
     </g>
     <g id="text_11">
      <!-- 35 -->
      <g transform="translate(43 102.203202)scale(0.22 -0.22)">
       <use xlink:href="#SimHei-33"/>
       <use xlink:href="#SimHei-35" x="50"/>
      </g>
     </g>
    </g>
    <g id="text_12">
     <!-- Episode reward -->
     <g transform="translate(36.25 291.92)rotate(-90)scale(0.22 -0.22)">
      <defs>
       <path id="SimHei-45" d="M 2900 125 
L 350 125 
L 350 4400 
L 2775 4400 
L 2775 3925 
L 925 3925 
L 925 2600 
L 2625 2600 
L 2625 2125 
L 925 2125 
L 925 600 
L 2900 600 
L 2900 125 
z
" transform="scale(0.015625)"/>
       <path id="SimHei-6f" d="M 2925 1525 
Q 2925 875 2525 475 
Q 2125 75 1575 75 
Q 1025 75 625 475 
Q 225 875 225 1525 
Q 225 2175 625 2575 
Q 1025 2975 1575 2975 
Q 2125 2975 2525 2575 
Q 2925 2175 2925 1525 
z
M 2375 1525 
Q 2375 2025 2125 2275 
Q 1875 2525 1575 2525 
Q 1275 2525 1025 2275 
Q 775 2025 775 1525 
Q 775 1025 1025 775 
Q 1275 525 1575 525 
Q 1875 525 2125 775 
Q 2375 1025 2375 1525 
z
" transform="scale(0.015625)"/>
       <path id="SimHei-64" d="M 2750 125 
L 2250 125 
L 2250 500 
Q 2100 275 1900 175 
Q 1700 75 1425 75 
Q 925 75 575 437 
Q 225 800 225 1525 
Q 225 2250 575 2625 
Q 925 3000 1425 3000 
Q 1700 3000 1900 2887 
Q 2100 2775 2250 2550 
L 2250 4400 
L 2750 4400 
L 2750 125 
z
M 2250 1525 
Q 2250 2000 2037 2275 
Q 1825 2550 1525 2550 
Q 1150 2550 962 2275 
Q 775 2000 775 1525 
Q 775 1050 962 787 
Q 1150 525 1525 525 
Q 1825 525 2037 787 
Q 2250 1050 2250 1525 
z
" transform="scale(0.015625)"/>
       <path id="SimHei-77" d="M 3075 2925 
L 2450 75 
L 1975 75 
L 1575 2250 
L 1525 2250 
L 1125 75 
L 650 75 
L 25 2925 
L 550 2925 
L 875 1050 
L 925 1050 
L 1275 2925 
L 1825 2925 
L 2175 1050 
L 2225 1050 
L 2550 2925 
L 3075 2925 
z
" transform="scale(0.015625)"/>
      </defs>
      <use xlink:href="#SimHei-45"/>
      <use xlink:href="#SimHei-70" x="50"/>
      <use xlink:href="#SimHei-69" x="100"/>
      <use xlink:href="#SimHei-73" x="150"/>
      <use xlink:href="#SimHei-6f" x="200"/>
      <use xlink:href="#SimHei-64" x="250"/>
      <use xlink:href="#SimHei-65" x="300"/>
      <use xlink:href="#SimHei-20" x="350"/>
      <use xlink:href="#SimHei-72" x="400"/>
      <use xlink:href="#SimHei-65" x="450"/>
      <use xlink:href="#SimHei-77" x="500"/>
      <use xlink:href="#SimHei-61" x="550"/>
      <use xlink:href="#SimHei-72" x="600"/>
      <use xlink:href="#SimHei-64" x="650"/>
     </g>
    </g>
   </g>
   <g id="line2d_21">
    <path d="M 92.808326 311.624438 
L 93.761462 321.914991 
L 94.605669 329.291927 
L 96.239616 322.389818 
L 99.099025 317.043167 
L 101.223157 307.603335 
L 102.285223 312.413133 
L 103.946404 312.653708 
L 105.770979 312.492208 
L 108.058506 313.835555 
L 109.311199 314.01901 
L 110.97238 307.501519 
L 112.225073 307.033442 
L 114.158578 304.160875 
L 115.002784 305.947405 
L 116.228245 304.767486 
L 117.154149 303.987325 
L 118.897027 303.3793 
L 121.239019 299.903927 
L 123.662708 299.398479 
L 125.269423 300.179623 
L 126.876139 299.405637 
L 128.891341 299.381428 
L 129.98064 299.407508 
L 131.369495 299.210815 
L 132.295399 298.427631 
L 133.847649 296.101277 
L 135.944549 291.378296 
L 137.796357 289.741869 
L 140.437906 287.548125 
L 142.507573 284.834208 
L 143.950894 282.553091 
L 146.919232 280.495032 
L 150.296058 276.849011 
L 152.556352 272.92881 
L 154.62602 269.905364 
L 156.368897 270.758218 
L 159.064911 266.005438 
L 160.835022 262.624531 
L 163.149781 256.114647 
L 166.063655 249.301921 
L 169.848967 242.926301 
L 173.770442 234.78567 
L 176.684316 231.514711 
L 180.387931 225.139386 
L 184.717893 216.535271 
L 188.612135 209.409882 
L 191.090289 203.675886 
L 195.066229 197.062997 
L 198.633682 190.21278 
L 202.473459 182.654615 
L 206.313237 176.038971 
L 209.88069 173.32391 
L 213.802164 167.420252 
L 218.159359 160.888449 
L 222.516553 157.670347 
L 226.873747 149.368893 
L 230.087178 145.967722 
L 234.117583 141.136182 
L 237.984593 135.645821 
L 242.205625 132.112687 
L 246.562819 125.558475 
L 250.375364 122.905413 
L 254.133444 119.36022 
L 258.490638 116.304198 
L 261.458977 116.955215 
L 265.816171 116.948813 
L 270.173365 117.047294 
L 272.161335 117.717471 
L 276.436832 117.152395 
L 280.794026 117.102535 
L 285.151221 116.8225 
L 289.508415 115.102192 
L 293.865609 114.321914 
L 297.950479 115.156115 
L 301.354537 115.734375 
L 305.139849 119.403967 
L 309.497044 116.643384 
L 313.609146 116.076383 
L 317.96634 116.964223 
L 321.669955 117.283805 
L 325.727592 117.614915 
L 330.084787 116.343125 
L 333.162055 118.746764 
L 337.519249 119.052397 
L 340.95054 118.348336 
L 344.463528 119.325036 
L 346.996147 119.805566 
L 350.67253 120.975697 
L 353.831495 122.940657 
L 358.18869 120.905997 
L 361.374888 120.030138 
L 363.93474 123.06354 
L 367.58389 122.138355 
L 371.941084 121.895093 
L 376.298278 122.734288 
L 380.246986 123.110873 
L 382.72514 123.732128 
L 386.101966 123.376038 
L 390.45916 121.411271 
L 394.298937 120.36167 
L 398.165947 117.665215 
L 401.869562 118.972063 
L 405.38255 121.229881 
L 409.46742 123.652745 
L 413.824614 123.004905 
L 416.738488 125.616297 
L 420.115313 125.750889 
L 423.682766 124.062065 
L 427.440846 124.245321 
L 431.798041 125.695818 
L 435.283796 126.633103 
L 439.64099 124.592534 
L 443.453535 124.460511 
L 445.931689 125.207747 
L 449.771467 126.573199 
L 454.128661 126.467166 
L 457.287627 124.791008 
L 460.501058 123.729871 
L 464.3953 124.11544 
L 466.573897 125.765133 
L 469.678398 127.533977 
L 473.300316 127.372288 
" clip-path="url(#p7cfeb481b8)" style="fill: none; stroke: #4169e1; stroke-width: 2; stroke-linecap: square"/>
   </g>
   <g id="line2d_22">
    <path d="M 93.870392 275.94415 
L 95.368178 306.103929 
L 97.328915 308.608148 
L 98.93563 315.664638 
L 100.215556 318.016923 
L 101.413785 322.145804 
L 102.748175 324.664641 
L 103.864706 321.160291 
L 104.491053 323.799742 
L 106.342861 323.550893 
L 108.65762 319.659621 
L 111.081309 317.283106 
L 114.29474 315.054434 
L 117.263079 310.004813 
L 119.768465 309.206585 
L 122.518944 307.830861 
L 124.779239 306.235569 
L 126.603814 307.190281 
L 128.727946 305.294339 
L 130.852078 304.542881 
L 134.038277 304.608772 
L 135.590527 304.008079 
L 138.232076 299.556991 
L 139.294142 299.224637 
L 140.682998 299.316548 
L 142.480341 298.181929 
L 144.059824 295.411529 
L 146.320118 293.129633 
L 148.199158 289.886814 
L 151.085799 285.675852 
L 154.244765 281.495808 
L 157.322034 276.769403 
L 159.119376 275.426498 
L 162.577899 269.526643 
L 166.526607 265.509223 
L 170.720406 261.521407 
L 174.832508 255.991057 
L 179.189702 248.971099 
L 183.546897 244.721442 
L 187.904091 238.294848 
L 192.261285 231.317783 
L 194.930067 225.116279 
L 198.334125 217.441302 
L 202.527924 209.920397 
L 206.885119 202.918336 
L 211.242313 194.772102 
L 215.599507 188.551546 
L 219.956701 186.40442 
L 224.313896 178.028572 
L 228.67109 169.388383 
L 233.028284 163.131794 
L 236.350645 156.675775 
L 240.707839 150.390086 
L 244.13913 144.527707 
L 248.251232 138.979055 
L 251.818684 134.159129 
L 256.175879 130.88332 
L 260.533073 123.531283 
L 264.182223 121.865222 
L 268.23986 117.707031 
L 272.10687 115.157547 
L 276.4096 112.475583 
L 280.548934 113.320404 
L 284.906129 112.310644 
L 288.364651 111.113549 
L 292.095499 111.392536 
L 296.180369 109.754956 
L 299.28487 109.754174 
L 303.642064 110.669833 
L 307.999258 110.381898 
L 311.893501 110.806965 
L 316.250695 112.030495 
L 320.607889 110.918751 
L 324.965083 110.650204 
L 328.369141 111.607606 
L 332.018292 111.829169 
L 335.42235 112.593278 
L 338.908105 115.190553 
L 343.265299 113.90488 
L 347.486331 115.352633 
L 351.761828 115.92857 
L 355.628838 114.996833 
L 359.768173 116.002615 
L 364.125367 113.664248 
L 367.529425 113.164769 
L 371.886619 112.70406 
L 375.726397 113.770871 
L 379.729569 115.363838 
L 383.542114 114.535979 
L 387.899308 115.573931 
L 391.085507 115.593199 
L 395.442701 116.809388 
L 399.228013 116.144296 
L 403.585208 118.140841 
L 407.288823 119.446516 
L 411.646017 118.923099 
L 415.921514 117.154796 
L 420.278708 115.814906 
L 424.635902 117.889913 
L 427.386381 119.26805 
L 431.743576 119.691649 
L 436.10077 118.803039 
L 439.695455 117.259976 
L 443.72586 118.968296 
L 447.347778 120.335602 
L 451.704972 118.08923 
L 456.062166 117.041451 
L 459.711316 119.04204 
L 464.068511 119.156824 
L 468.425705 119.557887 
L 472.374412 120.667567 
L 476.159725 121.061145 
L 479.75441 119.143393 
L 483.866512 120.944587 
L 488.223706 120.925801 
L 492.580901 120.121284 
L 494.296546 121.473263 
L 498.109091 121.224387 
" clip-path="url(#p7cfeb481b8)" style="fill: none; stroke: #b22222; stroke-width: 2; stroke-linecap: square"/>
   </g>
   <g id="line2d_23">
    <path d="M 92.318142 347.56738 
L 93.788695 334.054616 
L 94.632901 337.090235 
L 95.586037 337.27146 
L 96.838731 318.212608 
L 98.690538 312.523277 
L 100.324486 313.886165 
L 102.040131 308.926806 
L 102.69371 313.459275 
L 104.89954 310.541411 
L 105.689281 310.002292 
L 107.078137 310.013535 
L 108.929945 308.287032 
L 109.610756 311.289887 
L 110.672822 309.819228 
L 111.734889 309.75921 
L 112.987582 309.21318 
L 115.438504 305.922784 
L 117.453706 304.439492 
L 118.624702 306.007339 
L 119.986325 307.919645 
L 121.593041 303.479882 
L 122.491712 305.062459 
L 124.261822 304.661994 
L 126.031932 304.586056 
L 126.712744 301.159067 
L 129.463223 298.475578 
L 130.824846 294.761366 
L 132.349864 291.507894 
L 133.847649 293.291325 
L 137.17001 290.35197 
L 138.994585 287.018444 
L 141.391042 285.195779 
L 144.604473 278.411811 
L 147.409417 273.16952 
L 150.65008 267.019751 
L 153.346094 262.507738 
L 155.987643 259.183248 
L 159.664026 250.605664 
L 162.931921 245.361183 
L 166.199817 238.404077 
L 168.814134 232.807917 
L 172.327121 227.799579 
L 176.684316 219.904177 
L 180.959813 209.656435 
L 184.418336 202.033011 
L 188.77553 196.712715 
L 193.078259 187.418001 
L 196.482317 180.302612 
L 200.839511 171.769251 
L 205.196706 164.507446 
L 209.5539 159.632172 
L 213.911094 153.842929 
L 218.268289 147.232014 
L 222.625483 139.174484 
L 225.593821 135.347054 
L 229.297437 129.649247 
L 233.654631 126.367763 
L 238.011825 122.361765 
L 241.742673 120.121212 
L 246.099867 118.266468 
L 250.457061 113.465726 
L 254.351304 110.718165 
L 258.708498 109.930299 
L 262.167021 108.941955 
L 266.524215 106.752502 
L 270.881409 104.412071 
L 274.339932 104.532685 
L 277.580596 107.273386 
L 280.902956 109.384925 
L 285.260151 107.267802 
L 289.263323 108.729419 
L 293.53882 108.743054 
L 297.623689 107.971062 
L 301.980884 109.053302 
L 306.338078 110.628349 
L 309.687671 112.419843 
L 313.908703 111.994072 
L 318.265897 112.14038 
L 322.623091 112.871538 
L 326.980286 111.959634 
L 331.33748 113.117477 
L 335.177257 111.994108 
L 338.608548 112.855285 
L 341.440724 114.828055 
L 345.607291 114.561247 
L 349.964486 115.938932 
L 354.294447 115.937789 
L 358.651642 114.744129 
L 361.756143 115.075944 
L 366.113337 117.362555 
L 368.645956 121.222209 
L 372.866988 121.056482 
L 377.224182 119.059491 
L 380.873332 117.635531 
L 384.113996 118.806577 
L 388.47119 118.466789 
L 392.093108 118.885791 
L 396.450302 118.32908 
L 399.119083 119.587589 
L 403.476278 120.465994 
L 407.234358 117.833229 
L 411.264763 118.493314 
L 415.513027 118.769684 
L 419.026015 120.232902 
L 422.865792 122.365057 
L 426.324315 122.738849 
L 430.490882 123.069515 
L 434.575752 124.653365 
L 438.551692 124.058954 
L 441.465565 127.248557 
L 445.82276 129.063742 
L 450.043792 127.872784 
L 454.183126 128.045485 
L 457.097 130.16714 
L 460.255966 129.034251 
L 463.714489 126.654243 
L 468.071683 125.795503 
L 472.047623 126.812742 
L 475.941865 130.473898 
L 478.828506 131.898598 
" clip-path="url(#p7cfeb481b8)" style="fill: none; stroke: #2e8b57; stroke-width: 2; stroke-linecap: square"/>
   </g>
   <g id="line2d_24">
    <path d="M 92.290909 311.642182 
L 94.006554 306.242296 
L 96.076222 309.058164 
L 98.93563 302.380004 
L 100.133859 298.518675 
L 102.339688 300.37535 
L 104.109799 296.193429 
L 107.023672 293.714196 
L 109.610756 291.371878 
L 110.727287 289.551669 
L 113.423301 287.86418 
L 115.656363 287.421867 
L 119.114886 287.302149 
L 121.565808 285.891656 
L 124.425217 283.979666 
L 127.584183 280.73883 
L 130.443591 275.381518 
L 132.976211 273.57844 
L 135.61776 270.314397 
L 138.967353 268.143583 
L 142.6982 266.447276 
L 147.055395 264.598078 
L 151.004102 262.596423 
L 155.034507 259.377991 
L 157.676056 259.841696 
L 160.780557 256.592144 
L 164.456939 251.80149 
L 168.051625 247.53515 
L 171.836937 245.277083 
L 175.213763 243.826748 
L 178.427193 240.742005 
L 182.784388 237.676792 
L 186.78756 232.462635 
L 191.144754 230.006209 
L 195.501948 227.270385 
L 199.641283 222.658314 
L 203.998477 221.157803 
L 207.457 219.734716 
L 211.814195 219.219679 
L 216.035227 219.353347 
L 219.657144 217.961909 
L 224.014339 216.985808 
L 228.371533 213.58229 
L 232.728727 214.582443 
L 236.786364 215.881459 
L 241.143559 215.873835 
L 244.956104 215.448858 
L 249.313298 215.522214 
L 253.670492 218.283774 
L 258.027686 216.88509 
L 261.840231 218.784327 
L 265.543846 220.368562 
L 269.901041 220.066657 
L 274.258235 219.361179 
L 278.615429 217.953292 
L 282.972624 215.922926 
L 287.329818 215.928368 
L 291.169595 218.301429 
L 295.52679 216.509926 
L 299.883984 218.595114 
L 304.241178 221.851051 
L 308.598372 219.328083 
L 312.955567 217.292689 
L 317.312761 215.909684 
L 321.669955 213.061801 
L 325.754825 212.236479 
L 329.485672 210.886609 
L 330.466041 217.117434 
L 333.54331 217.192763 
L 337.246925 215.431868 
L 340.324193 214.011302 
L 344.245668 213.240715 
L 348.602862 212.162329 
L 352.960057 209.402652 
L 357.317251 206.440211 
L 361.674445 203.104086 
L 365.841012 203.363246 
L 370.198206 204.276341 
L 374.555401 205.661566 
L 378.912595 203.785734 
L 383.269789 201.826317 
L 387.626984 200.181946 
L 391.984178 198.210969 
L 396.341372 197.372683 
L 400.698566 193.112212 
L 405.055761 189.862323 
L 409.412955 187.757172 
L 413.770149 186.282873 
L 418.127343 181.642027 
L 422.484538 177.896504 
L 426.841732 174.03398 
L 431.198926 172.992767 
L 435.556121 163.621579 
L 439.913315 158.230001 
L 444.270509 153.080836 
L 448.627703 148.705341 
L 452.984898 144.016103 
L 457.342092 139.511853 
L 461.699286 135.30501 
L 466.056481 133.049702 
L 470.413675 128.641738 
L 474.770869 122.774003 
L 479.128063 118.02586 
L 483.485258 111.853474 
L 487.842452 108.420591 
L 492.199646 106.518056 
L 496.55684 103.921781 
" clip-path="url(#p7cfeb481b8)" style="fill: none; stroke: #ff8c00; stroke-width: 2; stroke-linecap: square"/>
   </g>
   <g id="patch_3">
    <path d="M 72 378 
L 72 51.84 
" style="fill: none; stroke: #000000; stroke-width: 0.8; stroke-linejoin: miter; stroke-linecap: square"/>
   </g>
   <g id="patch_4">
    <path d="M 518.4 378 
L 518.4 51.84 
" style="fill: none; stroke: #000000; stroke-width: 0.8; stroke-linejoin: miter; stroke-linecap: square"/>
   </g>
   <g id="patch_5">
    <path d="M 72 378 
L 518.4 378 
" style="fill: none; stroke: #000000; stroke-width: 0.8; stroke-linejoin: miter; stroke-linecap: square"/>
   </g>
   <g id="patch_6">
    <path d="M 72 51.84 
L 518.4 51.84 
" style="fill: none; stroke: #000000; stroke-width: 0.8; stroke-linejoin: miter; stroke-linecap: square"/>
   </g>
   <g id="legend_1">
    <g id="patch_7">
     <path d="M 336.46 367 
L 503 367 
Q 507.4 367 507.4 362.6 
L 507.4 248.2 
Q 507.4 243.8 503 243.8 
L 336.46 243.8 
Q 332.06 243.8 332.06 248.2 
L 332.06 362.6 
Q 332.06 367 336.46 367 
z
" style="fill: #ffffff; opacity: 0.8; stroke: #cccccc; stroke-linejoin: miter"/>
    </g>
    <g id="line2d_25">
     <path d="M 340.86 260.3 
L 362.86 260.3 
L 384.86 260.3 
" style="fill: none; stroke: #4169e1; stroke-width: 2; stroke-linecap: square"/>
    </g>
    <g id="text_13">
     <!-- $\lambda=0$ -->
     <g transform="translate(402.46 268)scale(0.22 -0.22)">
      <defs>
       <path id="DejaVuSans-Oblique-3bb" d="M 2350 4316 
L 3125 0 
L 2516 0 
L 2038 2588 
L 328 0 
L -281 0 
L 1903 3356 
L 1794 3975 
Q 1725 4369 1391 4369 
L 1091 4369 
L 1184 4863 
L 1550 4856 
Q 2253 4847 2350 4316 
z
" transform="scale(0.015625)"/>
       <path id="DejaVuSans-3d" d="M 678 2906 
L 4684 2906 
L 4684 2381 
L 678 2381 
L 678 2906 
z
M 678 1631 
L 4684 1631 
L 4684 1100 
L 678 1100 
L 678 1631 
z
" transform="scale(0.015625)"/>
       <path id="DejaVuSans-30" d="M 2034 4250 
Q 1547 4250 1301 3770 
Q 1056 3291 1056 2328 
Q 1056 1369 1301 889 
Q 1547 409 2034 409 
Q 2525 409 2770 889 
Q 3016 1369 3016 2328 
Q 3016 3291 2770 3770 
Q 2525 4250 2034 4250 
z
M 2034 4750 
Q 2819 4750 3233 4129 
Q 3647 3509 3647 2328 
Q 3647 1150 3233 529 
Q 2819 -91 2034 -91 
Q 1250 -91 836 529 
Q 422 1150 422 2328 
Q 422 3509 836 4129 
Q 1250 4750 2034 4750 
z
" transform="scale(0.015625)"/>
      </defs>
      <use xlink:href="#DejaVuSans-Oblique-3bb" transform="translate(0 0.015625)"/>
      <use xlink:href="#DejaVuSans-3d" transform="translate(78.662109 0.015625)"/>
      <use xlink:href="#DejaVuSans-30" transform="translate(181.933594 0.015625)"/>
     </g>
    </g>
    <g id="line2d_26">
     <path d="M 340.86 289.45 
L 362.86 289.45 
L 384.86 289.45 
" style="fill: none; stroke: #b22222; stroke-width: 2; stroke-linecap: square"/>
    </g>
    <g id="text_14">
     <!-- $\lambda=0.5$ -->
     <g transform="translate(402.46 297.15)scale(0.22 -0.22)">
      <defs>
       <path id="DejaVuSans-2e" d="M 684 794 
L 1344 794 
L 1344 0 
L 684 0 
L 684 794 
z
" transform="scale(0.015625)"/>
       <path id="DejaVuSans-35" d="M 691 4666 
L 3169 4666 
L 3169 4134 
L 1269 4134 
L 1269 2991 
Q 1406 3038 1543 3061 
Q 1681 3084 1819 3084 
Q 2600 3084 3056 2656 
Q 3513 2228 3513 1497 
Q 3513 744 3044 326 
Q 2575 -91 1722 -91 
Q 1428 -91 1123 -41 
Q 819 9 494 109 
L 494 744 
Q 775 591 1075 516 
Q 1375 441 1709 441 
Q 2250 441 2565 725 
Q 2881 1009 2881 1497 
Q 2881 1984 2565 2268 
Q 2250 2553 1709 2553 
Q 1456 2553 1204 2497 
Q 953 2441 691 2322 
L 691 4666 
z
" transform="scale(0.015625)"/>
      </defs>
      <use xlink:href="#DejaVuSans-Oblique-3bb" transform="translate(0 0.015625)"/>
      <use xlink:href="#DejaVuSans-3d" transform="translate(78.662109 0.015625)"/>
      <use xlink:href="#DejaVuSans-30" transform="translate(181.933594 0.015625)"/>
      <use xlink:href="#DejaVuSans-2e" transform="translate(245.556641 0.015625)"/>
      <use xlink:href="#DejaVuSans-35" transform="translate(277.34375 0.015625)"/>
     </g>
    </g>
    <g id="line2d_27">
     <path d="M 340.86 318.6 
L 362.86 318.6 
L 384.86 318.6 
" style="fill: none; stroke: #2e8b57; stroke-width: 2; stroke-linecap: square"/>
    </g>
    <g id="text_15">
     <!-- $\lambda=2$ -->
     <g transform="translate(402.46 326.3)scale(0.22 -0.22)">
      <defs>
       <path id="DejaVuSans-32" d="M 1228 531 
L 3431 531 
L 3431 0 
L 469 0 
L 469 531 
Q 828 903 1448 1529 
Q 2069 2156 2228 2338 
Q 2531 2678 2651 2914 
Q 2772 3150 2772 3378 
Q 2772 3750 2511 3984 
Q 2250 4219 1831 4219 
Q 1534 4219 1204 4116 
Q 875 4013 500 3803 
L 500 4441 
Q 881 4594 1212 4672 
Q 1544 4750 1819 4750 
Q 2544 4750 2975 4387 
Q 3406 4025 3406 3419 
Q 3406 3131 3298 2873 
Q 3191 2616 2906 2266 
Q 2828 2175 2409 1742 
Q 1991 1309 1228 531 
z
" transform="scale(0.015625)"/>
      </defs>
      <use xlink:href="#DejaVuSans-Oblique-3bb" transform="translate(0 0.015625)"/>
      <use xlink:href="#DejaVuSans-3d" transform="translate(78.662109 0.015625)"/>
      <use xlink:href="#DejaVuSans-32" transform="translate(181.933594 0.015625)"/>
     </g>
    </g>
    <g id="line2d_28">
     <path d="M 340.86 347.75 
L 362.86 347.75 
L 384.86 347.75 
" style="fill: none; stroke: #ff8c00; stroke-width: 2; stroke-linecap: square"/>
    </g>
    <g id="text_16">
     <!-- $\lambda=1000$ -->
     <g transform="translate(402.46 355.45)scale(0.22 -0.22)">
      <defs>
       <path id="DejaVuSans-31" d="M 794 531 
L 1825 531 
L 1825 4091 
L 703 3866 
L 703 4441 
L 1819 4666 
L 2450 4666 
L 2450 531 
L 3481 531 
L 3481 0 
L 794 0 
L 794 531 
z
" transform="scale(0.015625)"/>
      </defs>
      <use xlink:href="#DejaVuSans-Oblique-3bb" transform="translate(0 0.015625)"/>
      <use xlink:href="#DejaVuSans-3d" transform="translate(78.662109 0.015625)"/>
      <use xlink:href="#DejaVuSans-31" transform="translate(181.933594 0.015625)"/>
      <use xlink:href="#DejaVuSans-30" transform="translate(245.556641 0.015625)"/>
      <use xlink:href="#DejaVuSans-30" transform="translate(309.179688 0.015625)"/>
      <use xlink:href="#DejaVuSans-30" transform="translate(372.802734 0.015625)"/>
     </g>
    </g>
   </g>
  </g>
 </g>
 <defs>
  <clipPath id="p7cfeb481b8">
   <rect x="72" y="51.84" width="446.4" height="326.16"/>
  </clipPath>
 </defs>
</svg>
